
        <svg xmlns="http://www.w3.org/2000/svg" xmlns:xlink="http://www.w3.org/1999/xlink" version="1.1" width="3171.4285714285716" height="564.5302520235914" viewBox="0 0 3171.4285714285716 564.5302520235914">
			
			<g transform="scale(8.571428571428571) translate(10, 10)">
				<defs id="SvgjsDefs1021"/><g id="SvgjsG1022" featureKey="bQt9oe-0" transform="matrix(1.8166716787446262,0,0,1.8166716787446262,-0.21800039354778059,-10.936361738879265)" fill="#ffffff"><path d="M8.66 20 l-3.8 0 l-4.74 -13.7 l3.34 0 l3.38 10.36 l3.38 -10.36 l3.2 0 z M17.48 20 l-3.1 0 l0 -13.7 l3.1 0 l0 13.7 z M27.64 20 l-5.52 -8.68 l0 8.68 l-2.98 0 l0 -13.7 l3.38 0 l5.52 8.7 l0 -8.7 l2.98 0 l0 13.7 l-3.38 0 z M39.62 8.9 c-2.32 0 -4.08 1.86 -4.08 4.22 c0 2.42 1.76 4.26 4.18 4.26 c1.68 0 2.96 -0.88 3.74 -2.22 l2.42 1.68 c-1.32 2.16 -3.34 3.44 -6.12 3.44 c-4.22 0 -7.38 -3.14 -7.38 -7.16 c0 -3.98 3.14 -7.1 7.3 -7.1 c2.7 0 4.84 1.12 6.14 3.42 l-2.46 1.7 c-0.8 -1.32 -2 -2.24 -3.74 -2.24 z M54.02 20.28 c-4 0 -7.26 -3.06 -7.26 -7.12 c0 -4.08 3.26 -7.14 7.26 -7.14 c4.1 0 7.26 3.06 7.26 7.12 c0 4.08 -3.16 7.14 -7.26 7.14 z M54.02 17.4 c2.32 0 4.1 -1.84 4.1 -4.26 c0 -2.38 -1.78 -4.24 -4.1 -4.24 s-4.1 1.86 -4.1 4.26 s1.78 4.24 4.1 4.24 z M73.26 20 l-3.7 -8.18 l0 8.18 l-2.98 0 l0 -13.7 l3.72 0 l4.02 9.06 l4.02 -9.06 l3.72 0 l0 13.7 l-3.04 0 l0 -8.22 l-3.72 8.22 l-2.04 0 z M83.74000000000001 20 l0 -13.7 l10.02 0 l0 2.8 l-6.92 0 l0 2.58 l6.4 0 l0 2.72 l-6.4 0 l0 2.8 l6.94 0 l0 2.8 l-10.04 0 z M102.08000000000001 8.9 c-2.32 0 -4.08 1.86 -4.08 4.22 c0 2.42 1.76 4.26 4.18 4.26 c1.68 0 2.96 -0.88 3.74 -2.22 l2.42 1.68 c-1.32 2.16 -3.34 3.44 -6.12 3.44 c-4.22 0 -7.38 -3.14 -7.38 -7.16 c0 -3.98 3.14 -7.1 7.3 -7.1 c2.7 0 4.84 1.12 6.14 3.42 l-2.46 1.7 c-0.8 -1.32 -2 -2.24 -3.74 -2.24 z M118.44 20 l0 -5.36 l-5.8 0 l0 5.36 l-3.1 0 l0 -13.7 l3.1 0 l0 5.5 l5.8 0 l0 -5.5 l3.1 0 l0 13.7 l-3.1 0 z M130.92 14.9 l-1.78 -5.36 l-1.78 5.36 l3.56 0 z M132.62 20 l-0.78 -2.36 l-5.38 0 l-0.78 2.36 l-3.18 0 l4.84 -13.7 l3.8 0 l4.82 13.7 l-3.34 0 z M145.42 20 l-5.52 -8.68 l0 8.68 l-2.98 0 l0 -13.7 l3.38 0 l5.52 8.7 l0 -8.7 l2.98 0 l0 13.7 l-3.38 0 z M153.57999999999998 20 l-3.1 0 l0 -13.7 l3.1 0 l0 13.7 z M162.15999999999997 8.9 c-2.32 0 -4.08 1.86 -4.08 4.22 c0 2.42 1.76 4.26 4.18 4.26 c1.68 0 2.96 -0.88 3.74 -2.22 l2.42 1.68 c-1.32 2.16 -3.34 3.44 -6.12 3.44 c-4.22 0 -7.38 -3.14 -7.38 -7.16 c0 -3.98 3.14 -7.1 7.3 -7.1 c2.7 0 4.84 1.12 6.14 3.42 l-2.46 1.7 c-0.8 -1.32 -2 -2.24 -3.74 -2.24 z M177.31999999999996 14.9 l-1.78 -5.36 l-1.78 5.36 l3.56 0 z M179.01999999999998 20 l-0.78 -2.36 l-5.38 0 l-0.78 2.36 l-3.18 0 l4.84 -13.7 l3.8 0 l4.82 13.7 l-3.34 0 z M183.31999999999996 20 l0 -13.7 l3.1 0 l0 10.86 l6.36 0 l0 2.84 l-9.46 0 z"/></g><g id="SvgjsG1023" featureKey="WvMr3I-0" transform="matrix(0.6192559619746776,0,0,0.6192559619746776,143.97204759955162,33.28767180818983)" fill="#ffffff"><path d="M12.18 20.3 c-0.24 0 -0.44666 -0.08666 -0.62 -0.26 s-0.26 -0.38 -0.26 -0.62 l0 -6.78 l-7.86 0 l0 6.78 c0 0.24 -0.08666 0.44666 -0.26 0.62 s-0.38 0.26 -0.62 0.26 c-0.25334 0 -0.46668 -0.08666 -0.64002 -0.26 s-0.26 -0.38 -0.26 -0.62 l0 -14.02 c0 -0.24 0.08666 -0.44666 0.26 -0.62 s0.38668 -0.26 0.64002 -0.26 c0.24 0 0.44666 0.08666 0.62 0.26 s0.26 0.38 0.26 0.62 l0 5.46 l7.86 0 l0 -5.46 c0 -0.24 0.08666 -0.44666 0.26 -0.62 s0.38 -0.26 0.62 -0.26 c0.25334 0 0.46668 0.08666 0.64002 0.26 s0.26 0.38 0.26 0.62 l0 14.02 c0 0.24 -0.08666 0.44666 -0.26 0.62 s-0.38668 0.26 -0.64002 0.26 z M42.643 5.6 l-5.7 14.14 c-0.06666 0.17334 -0.17332 0.31 -0.31998 0.41 s-0.31332 0.15 -0.49998 0.15 s-0.35332 -0.05 -0.49998 -0.15 s-0.25332 -0.23666 -0.31998 -0.41 l-5.72 -14.14 c-0.04 -0.09334 -0.06 -0.20668 -0.06 -0.34002 c0 -0.24 0.08666 -0.44666 0.26 -0.62 s0.38 -0.26 0.62 -0.26 c0.18666 0 0.35666 0.05 0.51 0.15 s0.26334 0.23666 0.33 0.41 l4.88 12.1 l4.88 -12.1 c0.06666 -0.17334 0.17332 -0.31 0.31998 -0.41 s0.31332 -0.15 0.49998 -0.15 c0.25334 0 0.46668 0.08666 0.64002 0.26 s0.26 0.38 0.26 0.62 c0 0.13334 -0.02666 0.24668 -0.08 0.34002 z M69.926 20.22 c-0.10666 0.05334 -0.21992 0.08 -0.33992 0.08 c-0.17334 0 -0.33668 -0.04666 -0.49002 -0.14 s-0.26334 -0.22668 -0.33 -0.40002 l-1.58 -3.72 l-7.26 0 l-1.58 3.72 c-0.09334 0.22666 -0.25334 0.38666 -0.48 0.48 s-0.45332 0.08668 -0.67998 -0.01998 c-0.22666 -0.09334 -0.38666 -0.25334 -0.48 -0.48 s-0.08668 -0.45332 0.01998 -0.67998 l1.8 -4.26 l4.22 -9.88 c0.06666 -0.17334 0.17332 -0.30668 0.31998 -0.40002 s0.31332 -0.14 0.49998 -0.14 c0.17334 0 0.33334 0.04666 0.48 0.14 s0.25332 0.22668 0.31998 0.40002 c1.0133 2.3734 2.02 4.73 3.02 7.07 s2.0066 4.6966 3.02 7.07 c0.09334 0.22666 0.09334 0.45332 0 0.67998 s-0.25334 0.38666 -0.48 0.48 z M63.565999999999995 7.539999999999999 l-2.88 6.72 l5.74 0 z M94.669 20.3 c-1.1067 0 -2.1434 -0.21006 -3.11 -0.63006 s-1.81 -0.99 -2.53 -1.71 s-1.29 -1.5633 -1.71 -2.53 s-0.63 -2.0034 -0.63 -3.11 c0 -1.0933 0.21 -2.1166 0.63 -3.07 s0.99 -1.78 1.71 -2.48 s1.5633 -1.25 2.53 -1.65 s2.0034 -0.6 3.11 -0.6 c1.0667 0 2.08 0.19666 3.04 0.59 s1.82 0.97 2.58 1.73 c0.18666 0.18666 0.28 0.4 0.28 0.64 s-0.09334 0.44666 -0.28 0.62 c-0.17334 0.17334 -0.38 0.26 -0.62 0.26 s-0.44666 -0.08666 -0.62 -0.26 c-0.6 -0.6 -1.2733 -1.0533 -2.02 -1.36 s-1.5333 -0.46 -2.36 -0.46 c-0.86666 0 -1.6767 0.15666 -2.43 0.47 s-1.41 0.74 -1.97 1.28 s-1 1.1767 -1.32 1.91 s-0.48 1.5267 -0.48 2.38 s0.16334 1.6567 0.49 2.41 s0.77 1.41 1.33 1.97 s1.2167 1.0033 1.97 1.33 s1.5567 0.49 2.41 0.49 c0.82666 0 1.6133 -0.15334 2.36 -0.46 s1.42 -0.75332 2.02 -1.34 c0.17334 -0.18666 0.38 -0.28 0.62 -0.28 s0.44666 0.09334 0.62 0.28 c0.18666 0.17334 0.28 0.38 0.28 0.62 s-0.09334 0.44666 -0.28 0.62 c-0.76 0.76 -1.62 1.34 -2.58 1.74 s-1.9733 0.6 -3.04 0.6 z"/></g>
			</g>
		</svg>
	